<?xml version="1.0" encoding="UTF-8" standalone="no"?>
<svg width="668px" height="96px" viewBox="0 0 668 96" version="1.1" xmlns="http://www.w3.org/2000/svg" xmlns:xlink="http://www.w3.org/1999/xlink" xmlns:sketch="http://www.bohemiancoding.com/sketch/ns">
    <!-- Generator: Sketch 3.1.1 (8761) - http://www.bohemiancoding.com/sketch -->
    <title>Group</title>
    <desc>Created with Sketch.</desc>
    <defs></defs>
    <g id="Welcome" stroke="none" stroke-width="1" fill="none" fill-rule="evenodd" sketch:type="MSPage">
        <g id="Desktop-HD" sketch:type="MSArtboardGroup" transform="translate(-372.000000, -258.000000)" fill="#000000">
            <g id="Group" sketch:type="MSLayerGroup" transform="translate(372.000000, 258.000000)">
                <path d="M2.72,1.57030303 C2,-0.10969697 -0.48,0.93030303 0.24,2.61030303 C7.52,19.170303 14.8,35.570303 22,52.210303 C22.48,53.330303 24.08,53.250303 24.56,52.210303 L44.8,10.930303 L65.04,52.210303 C65.6,53.250303 67.12,53.330303 67.6,52.210303 C74.8,35.570303 82.16,19.170303 89.44,2.61030303 C90.16,0.93030303 87.6,-0.10969697 86.88,1.57030303 L66.4,48.450303 L46.24,7.57030303 C45.6,6.45030303 43.92,6.61030303 43.44,7.65030303 L23.28,48.450303 L2.72,1.57030303 Z M101.44,3.09030303 C101.44,1.09030303 98.8,1.09030303 98.8,3.09030303 L98.8,51.250303 C98.8,53.090303 101.44,53.090303 101.44,51.250303 L101.44,29.250303 L136.16,29.330303 L136.16,51.250303 C136.16,53.090303 138.88,53.090303 138.88,51.250303 L138.88,3.09030303 C138.88,1.09030303 136.16,1.09030303 136.16,3.09030303 L136.16,26.930303 L101.44,26.930303 L101.44,3.09030303 Z M189.92,35.810303 L158,35.810303 L174,4.13030303 L189.92,35.810303 Z M191.2,38.210303 L198.32,52.370303 C199.12,53.890303 201.44,52.690303 200.64,51.090303 L175.12,0.93030303 C174.88,0.45030303 174.48,0.21030303 174,0.21030303 C173.52,0.21030303 173.04,0.45030303 172.8,0.93030303 L147.36,51.090303 C146.56,52.690303 148.88,53.890303 149.68,52.370303 L156.8,38.210303 L191.2,38.210303 Z M203.28,1.57030303 C201.36,1.57030303 201.36,3.97030303 203.28,3.97030303 L223.92,3.97030303 L223.92,51.330303 C223.92,52.370303 224.64,52.850303 225.28,52.850303 C225.92,52.850303 226.72,52.370303 226.72,51.330303 L226.64,3.97030303 L247.36,3.97030303 C249.28,3.97030303 249.28,1.57030303 247.36,1.57030303 L203.28,1.57030303 L203.28,1.57030303 Z M256,4.05030303 L274.08,4.05030303 C301.92,4.05030303 301.92,50.050303 274.08,50.050303 L256,50.050303 L256,4.05030303 Z M274.08,52.530303 C305.44,52.530303 305.44,1.65030303 274.08,1.65030303 L255.52,1.65030303 C254.32,1.65030303 253.36,2.53030303 253.36,3.65030303 L253.36,50.450303 C253.36,51.570303 254.32,52.530303 255.52,52.530303 L274.08,52.530303 L274.08,52.530303 Z M331.44,53.490303 C345.36,53.490303 357.36,41.650303 356.88,26.210303 C356.56,13.810303 347.92,2.85030303 335.28,0.85030303 C332.48,0.45030303 329.44,0.45030303 326.64,0.85030303 C314.08,2.85030303 306.4,13.810303 306,26.210303 C305.6,41.650303 317.6,53.490303 331.44,53.490303 L331.44,53.490303 Z M327.04,3.41030303 C329.6,3.01030303 332.32,3.01030303 334.88,3.41030303 C346.24,5.17030303 353.92,15.090303 354.24,26.290303 C354.64,40.050303 343.92,51.010303 331.44,51.010303 C319.04,51.010303 308.32,40.050303 308.72,26.290303 C309.04,15.090303 315.76,5.17030303 327.04,3.41030303 L327.04,3.41030303 Z" id="WHATDO" sketch:type="MSShapeGroup"></path>
                <path d="M28.8925843,93.1 C27.9925843,93.98 26.8525843,94.38 25.5125843,94.38 C22.1725843,94.38 20.8925843,91.68 20.8925843,88.8 C20.8925843,85.82 22.3525843,83.06 25.5725843,83.04 C26.8325843,83.02 27.9725843,83.42 28.7325843,84.12 L29.3325843,83.48 C28.3925843,82.66 27.2525843,82.2 25.5525843,82.2 C22.0725843,82.2 20.0325843,84.98 20.0325843,88.8 C20.0325843,92.56 21.8125843,95.2 25.5325843,95.2 C27.1525843,95.2 28.4725843,94.72 29.4925843,93.74 L28.8925843,93.1 Z M48.2464752,88.6 L48.2464752,91.54 C48.2464752,93.78 45.1264752,94.4 43.6664752,94.4 C42.3464752,94.4 39.8464752,93.92 39.8464752,91.56 C39.8464752,89.8 41.1464752,89.06 42.5664752,88.7 C43.2664752,88.54 44.0064752,88.48 44.7464752,88.44 C45.4464752,88.4 46.1264752,88.4 46.6864752,88.4 C47.1064752,88.4 47.9464752,88.44 48.3464752,88.5 L48.2464752,88.6 Z M49.1064752,86.64 C49.1064752,83.28 46.8864752,82.22 44.3064752,82.22 C42.6664752,82.22 41.1664752,82.58 39.7664752,83.62 L40.3664752,84.22 C41.5264752,83.36 43.0464752,83.04 44.3064752,83.04 C46.4264752,83.04 48.2464752,83.88 48.2464752,86.7 L48.2464752,87.68 L48.3464752,87.78 C47.9064752,87.7 47.0864752,87.64 46.5264752,87.64 C43.4464752,87.64 38.9864752,87.74 38.9864752,91.56 C38.9864752,94.2 41.1464752,95.22 43.6464752,95.22 C45.5464752,95.22 47.3664752,94.56 48.2064752,93.38 L48.2464752,93.38 L48.2464752,95 L49.1064752,95 L49.1064752,86.64 Z M61.2603662,78.2 L60.4003662,78.2 L60.4003662,95 L61.2603662,95 L61.2603662,78.2 Z M80.8142571,93.1 C79.9142571,93.98 78.7742571,94.38 77.4342571,94.38 C74.0942571,94.38 72.8142571,91.68 72.8142571,88.8 C72.8142571,85.82 74.2742571,83.06 77.4942571,83.04 C78.7542571,83.02 79.8942571,83.42 80.6542571,84.12 L81.2542571,83.48 C80.3142571,82.66 79.1742571,82.2 77.4742571,82.2 C73.9942571,82.2 71.9542571,84.98 71.9542571,88.8 C71.9542571,92.56 73.7342571,95.2 77.4542571,95.2 C79.0742571,95.2 80.3942571,94.72 81.4142571,93.74 L80.8142571,93.1 Z M101.428148,82.4 L100.568148,82.4 L100.568148,89.96 C100.568148,92.9 98.6081481,94.36 96.2881481,94.36 C93.0481481,94.36 92.3681481,92.42 92.3681481,90.26 L92.3681481,82.4 L91.5081481,82.4 L91.5081481,90.36 C91.5081481,93.46 92.9681481,95.2 96.1881481,95.2 C98.2281481,95.2 99.7681481,94.2 100.528148,92.68 L100.568148,92.68 L100.568148,95 L101.428148,95 L101.428148,82.4 Z M113.682039,78.2 L112.822039,78.2 L112.822039,95 L113.682039,95 L113.682039,78.2 Z M133.63593,88.6 L133.63593,91.54 C133.63593,93.78 130.51593,94.4 129.05593,94.4 C127.73593,94.4 125.23593,93.92 125.23593,91.56 C125.23593,89.8 126.53593,89.06 127.95593,88.7 C128.65593,88.54 129.39593,88.48 130.13593,88.44 C130.83593,88.4 131.51593,88.4 132.07593,88.4 C132.49593,88.4 133.33593,88.44 133.73593,88.5 L133.63593,88.6 Z M134.49593,86.64 C134.49593,83.28 132.27593,82.22 129.69593,82.22 C128.05593,82.22 126.55593,82.58 125.15593,83.62 L125.75593,84.22 C126.91593,83.36 128.43593,83.04 129.69593,83.04 C131.81593,83.04 133.63593,83.88 133.63593,86.7 L133.63593,87.68 L133.73593,87.78 C133.29593,87.7 132.47593,87.64 131.91593,87.64 C128.83593,87.64 124.37593,87.74 124.37593,91.56 C124.37593,94.2 126.53593,95.22 129.03593,95.22 C130.93593,95.22 132.75593,94.56 133.59593,93.38 L133.63593,93.38 L133.63593,95 L134.49593,95 L134.49593,86.64 Z M151.369821,93.56 C150.729821,94.1 149.989821,94.38 149.169821,94.38 C147.789821,94.38 146.969821,93.46 146.969821,91.5 L146.969821,83.3 L146.909821,83.2 L150.869821,83.2 L150.869821,82.4 L146.909821,82.4 L146.969821,82.3 L146.969821,79.54 L146.109821,80 L146.109821,82.3 L146.169821,82.4 L144.589821,82.4 L144.589821,83.2 L146.169821,83.2 L146.109821,83.3 L146.109821,91.58 C146.109821,94 147.289821,95.2 149.069821,95.2 C150.149821,95.2 151.069821,94.86 151.969821,94.18 L151.369821,93.56 Z M162.623712,82.42 L161.763712,82.42 L161.763712,95 L162.623712,95 L162.623712,82.42 Z M162.183712,78.08 C161.723712,78.08 161.443712,78.38 161.443712,78.98 C161.443712,79.6 161.723712,79.9 162.203712,79.9 C162.663712,79.9 162.943712,79.6 162.943712,78.98 C162.943712,78.38 162.663712,78.08 162.183712,78.08 L162.183712,78.08 Z M183.377603,88.7 C183.377603,91.74 182.077603,94.36 178.777603,94.36 C175.497603,94.36 174.177603,91.72 174.177603,88.7 C174.177603,85.66 175.477603,83.04 178.777603,83.04 C182.057603,83.04 183.377603,85.66 183.377603,88.7 L183.377603,88.7 Z M184.237603,88.7 C184.237603,84.8 182.397603,82.2 178.757603,82.2 C175.157603,82.2 173.317603,84.84 173.317603,88.7 C173.317603,92.58 175.137603,95.2 178.777603,95.2 C182.377603,95.2 184.237603,92.54 184.237603,88.7 L184.237603,88.7 Z M205.011494,86.82 C205.011494,84.02 203.551494,82.2 200.251494,82.2 C198.351494,82.2 196.611494,83.12 195.831494,84.7 L195.791494,84.7 L195.791494,82.4 L194.931494,82.4 L194.931494,95 L195.791494,95 L195.791494,87.44 C195.791494,84.5 197.771494,83.04 200.151494,83.04 C203.391494,83.04 204.151494,84.88 204.151494,87.26 L204.151494,95 L205.011494,95 L205.011494,86.82 Z M235.879276,93.56 C235.239276,94.1 234.499276,94.38 233.679276,94.38 C232.299276,94.38 231.479276,93.46 231.479276,91.5 L231.479276,83.3 L231.419276,83.2 L235.379276,83.2 L235.379276,82.4 L231.419276,82.4 L231.479276,82.3 L231.479276,79.54 L230.619276,80 L230.619276,82.3 L230.679276,82.4 L229.099276,82.4 L229.099276,83.2 L230.679276,83.2 L230.619276,83.3 L230.619276,91.58 C230.619276,94 231.799276,95.2 233.579276,95.2 C234.659276,95.2 235.579276,94.86 236.479276,94.18 L235.879276,93.56 Z M255.633167,88.7 C255.633167,91.74 254.333167,94.36 251.033167,94.36 C247.753167,94.36 246.433167,91.72 246.433167,88.7 C246.433167,85.66 247.733167,83.04 251.033167,83.04 C254.313167,83.04 255.633167,85.66 255.633167,88.7 L255.633167,88.7 Z M256.493167,88.7 C256.493167,84.8 254.653167,82.2 251.013167,82.2 C247.413167,82.2 245.573167,84.84 245.573167,88.7 C245.573167,92.58 247.393167,95.2 251.033167,95.2 C254.633167,95.2 256.493167,92.54 256.493167,88.7 L256.493167,88.7 Z M276.547058,88.7 C276.547058,91.74 275.247058,94.36 271.947058,94.36 C268.667058,94.36 267.347058,91.72 267.347058,88.7 C267.347058,85.66 268.647058,83.04 271.947058,83.04 C275.227058,83.04 276.547058,85.66 276.547058,88.7 L276.547058,88.7 Z M277.407058,88.7 C277.407058,84.8 275.567058,82.2 271.927058,82.2 C268.327058,82.2 266.487058,84.84 266.487058,88.7 C266.487058,92.58 268.307058,95.2 271.947058,95.2 C275.547058,95.2 277.407058,92.54 277.407058,88.7 L277.407058,88.7 Z M288.960949,78.2 L288.100949,78.2 L288.100949,95 L288.960949,95 L288.960949,78.2 Z M319.42873,82.42 L315.46873,82.42 L315.52873,82.32 L315.52873,81.8 C315.52873,79.98 316.40873,78.9 318.24873,78.9 C318.54873,78.9 319.04873,78.98 319.42873,79.08 L319.42873,78.3 C319.08873,78.18 318.60873,78.1 318.20873,78.1 C315.92873,78.1 314.66873,79.5 314.66873,81.76 L314.66873,82.32 L314.72873,82.42 L313.14873,82.42 L313.14873,83.2 L314.72873,83.2 L314.66873,83.3 L314.66873,95 L315.52873,95 L315.52873,83.3 L315.46873,83.2 L319.42873,83.2 L319.42873,82.42 Z M338.482621,88.7 C338.482621,91.74 337.182621,94.36 333.882621,94.36 C330.602621,94.36 329.282621,91.72 329.282621,88.7 C329.282621,85.66 330.582621,83.04 333.882621,83.04 C337.162621,83.04 338.482621,85.66 338.482621,88.7 L338.482621,88.7 Z M339.342621,88.7 C339.342621,84.8 337.502621,82.2 333.862621,82.2 C330.262621,82.2 328.422621,84.84 328.422621,88.7 C328.422621,92.58 330.242621,95.2 333.882621,95.2 C337.482621,95.2 339.342621,92.54 339.342621,88.7 L339.342621,88.7 Z M355.356512,82.32 L355.256512,82.32 C353.276512,82.32 351.536512,83.5 350.936512,85.58 L350.896512,85.58 L350.896512,82.42 L350.036512,82.42 L350.036512,95 L350.896512,95 L350.896512,88.8 C350.896512,84.88 353.056512,83.28 355.156512,83.3 L355.356512,83.3 L355.356512,82.32 Z" id="calculation-tool-for" sketch:type="MSShapeGroup"></path>
                <path d="M416.020563,72.1050839 C415.6355,70.436478 415.507146,68.7678721 415.507146,67.0992662 C415.507146,61.3233229 417.175751,56.9592767 422.694986,49.5147275 C429.626118,40.273218 432.193204,33.342086 432.193204,23.7155136 C432.193204,9.33983229 425.133718,1.12515723 411.399808,1.12515723 C397.665898,1.12515723 390.606412,9.33983229 390.606412,23.7155136 L390.606412,32.5719602 L403.955259,32.5719602 L403.955259,22.8170335 C403.955259,16.3993187 406.522345,13.960587 411.014745,13.960587 C415.507146,13.960587 418.074232,16.3993187 418.074232,22.8170335 C418.074232,31.4167715 416.277271,37.3210692 409.987911,46.30587 C404.468676,54.1354822 402.671716,59.3980084 402.671716,66.5858491 C402.671716,68.8962264 402.928424,70.5648323 403.441842,72.1050839 L416.020563,72.1050839 Z M402.80007,78.3944444 L402.80007,92 L416.405626,92 L416.405626,78.3944444 L402.80007,78.3944444 Z" id="?" sketch:type="MSShapeGroup" transform="translate(412.426642, 46.562579) rotate(180.000000) translate(-412.426642, -46.562579) "></path>
                <path d="M470.162921,29.1174242 L503.922921,29.1174242 C505.602921,29.1174242 505.602921,26.7174242 503.922921,26.7174242 L470.162921,26.7174242 L470.162921,4.63742424 L505.522921,4.63742424 C507.202921,4.63742424 507.202921,2.23742424 505.602921,2.23742424 L469.682921,2.23742424 C468.402921,2.23742424 467.522921,3.19742424 467.522921,4.31742424 L467.522921,50.9574242 C467.522921,52.1574242 468.402921,53.1174242 469.682921,53.1174242 L505.522921,53.1174242 C507.202921,53.1174242 507.202921,50.5574242 505.522921,50.5574242 L470.162921,50.5574242 L470.162921,29.1174242 Z M554.962921,36.3974242 L523.042921,36.3974242 L539.042921,4.71742424 L554.962921,36.3974242 Z M556.242921,38.7974242 L563.362921,52.9574242 C564.162921,54.4774242 566.482921,53.2774242 565.682921,51.6774242 L540.162921,1.51742424 C539.922921,1.03742424 539.522921,0.797424242 539.042921,0.797424242 C538.562921,0.797424242 538.082921,1.03742424 537.842921,1.51742424 L512.402921,51.6774242 C511.602921,53.2774242 513.922921,54.4774242 514.722921,52.9574242 L521.842921,38.7974242 L556.242921,38.7974242 Z M577.042921,4.63742424 L596.002921,4.63742424 C606.962921,4.63742424 613.522921,10.9574242 613.602921,18.7974242 C613.762921,26.0774242 608.402921,31.9974242 596.002921,31.9974242 L577.042921,31.9974242 L577.042921,4.63742424 Z M595.762921,34.3174242 L613.762921,53.2774242 C615.042921,54.5574242 616.722921,52.7974242 615.442921,51.4374242 L598.882921,34.3974242 C610.562921,33.5174242 616.322921,27.4374242 616.322921,18.7974242 C616.322921,9.75742424 609.442921,2.15742424 595.922921,2.15742424 L575.762921,2.15742424 C574.962921,2.15742424 574.402921,2.71742424 574.402921,3.51742424 L574.402921,52.0774242 C574.402921,53.7574242 577.042921,53.7574242 577.042921,51.9974242 L577.042921,34.3174242 L595.762921,34.3174242 Z M664.402921,48.1574242 L629.682921,2.79742424 C628.562921,1.35742424 626.882921,1.59742424 626.882921,3.59742424 L626.882921,51.6774242 C626.882921,53.5974242 629.522921,53.5974242 629.522921,51.6774242 L629.522921,6.79742424 L664.322921,52.1574242 C665.362921,53.4374242 667.122921,53.4374242 667.122921,51.5174242 L667.122921,3.35742424 C667.122921,1.35742424 664.402921,1.35742424 664.402921,3.35742424 L664.402921,48.1574242 Z" id="EARN" sketch:type="MSShapeGroup"></path>
                <path d="M477.88,82.42 L473.92,82.42 L473.98,82.32 L473.98,81.8 C473.98,79.98 474.86,78.9 476.7,78.9 C477,78.9 477.5,78.98 477.88,79.08 L477.88,78.3 C477.54,78.18 477.06,78.1 476.66,78.1 C474.38,78.1 473.12,79.5 473.12,81.76 L473.12,82.32 L473.18,82.42 L471.6,82.42 L471.6,83.2 L473.18,83.2 L473.12,83.3 L473.12,95 L473.98,95 L473.98,83.3 L473.92,83.2 L477.88,83.2 L477.88,82.42 Z M493.193891,82.32 L493.093891,82.32 C491.113891,82.32 489.373891,83.5 488.773891,85.58 L488.733891,85.58 L488.733891,82.42 L487.873891,82.42 L487.873891,95 L488.733891,95 L488.733891,88.8 C488.733891,84.88 490.893891,83.28 492.993891,83.3 L493.193891,83.3 L493.193891,82.32 Z M503.267782,88.28 L503.367782,88.18 C503.587782,85.36 505.027782,83.04 508.007782,83.04 C510.987782,83.04 512.347782,85.32 512.507782,88.18 L512.607782,88.26 L503.267782,88.28 Z M513.407782,88.8 C513.407782,85.5 512.047782,82.2 507.987782,82.2 C504.287782,82.2 502.487782,85.18 502.487782,88.8 C502.487782,92.4 504.167782,95.2 508.087782,95.2 C509.647782,95.2 511.047782,94.7 512.147782,93.72 L511.527782,93.08 C510.587782,93.92 509.387782,94.38 508.067782,94.38 C504.967782,94.38 503.527782,92.24 503.347782,89.18 L503.247782,89.08 L513.407782,89.06 L513.407782,88.8 Z M524.181673,88.28 L524.281673,88.18 C524.501673,85.36 525.941673,83.04 528.921673,83.04 C531.901673,83.04 533.261673,85.32 533.421673,88.18 L533.521673,88.26 L524.181673,88.28 Z M534.321673,88.8 C534.321673,85.5 532.961673,82.2 528.901673,82.2 C525.201673,82.2 523.401673,85.18 523.401673,88.8 C523.401673,92.4 525.081673,95.2 529.001673,95.2 C530.561673,95.2 531.961673,94.7 533.061673,93.72 L532.441673,93.08 C531.501673,93.92 530.301673,94.38 528.981673,94.38 C525.881673,94.38 524.441673,92.24 524.261673,89.18 L524.161673,89.08 L534.321673,89.06 L534.321673,88.8 Z M545.875564,78.2 L545.015564,78.2 L545.015564,95 L545.875564,95 L545.875564,78.2 Z M565.829455,88.6 L565.829455,91.54 C565.829455,93.78 562.709455,94.4 561.249455,94.4 C559.929455,94.4 557.429455,93.92 557.429455,91.56 C557.429455,89.8 558.729455,89.06 560.149455,88.7 C560.849455,88.54 561.589455,88.48 562.329455,88.44 C563.029455,88.4 563.709455,88.4 564.269455,88.4 C564.689455,88.4 565.529455,88.44 565.929455,88.5 L565.829455,88.6 Z M566.689455,86.64 C566.689455,83.28 564.469455,82.22 561.889455,82.22 C560.249455,82.22 558.749455,82.58 557.349455,83.62 L557.949455,84.22 C559.109455,83.36 560.629455,83.04 561.889455,83.04 C564.009455,83.04 565.829455,83.88 565.829455,86.7 L565.829455,87.68 L565.929455,87.78 C565.489455,87.7 564.669455,87.64 564.109455,87.64 C561.029455,87.64 556.569455,87.74 556.569455,91.56 C556.569455,94.2 558.729455,95.22 561.229455,95.22 C563.129455,95.22 564.949455,94.56 565.789455,93.38 L565.829455,93.38 L565.829455,95 L566.689455,95 L566.689455,86.64 Z M588.063346,86.82 C588.063346,84.02 586.603346,82.2 583.303346,82.2 C581.403346,82.2 579.663346,83.12 578.883346,84.7 L578.843346,84.7 L578.843346,82.4 L577.983346,82.4 L577.983346,95 L578.843346,95 L578.843346,87.44 C578.843346,84.5 580.823346,83.04 583.203346,83.04 C586.443346,83.04 587.203346,84.88 587.203346,87.26 L587.203346,95 L588.063346,95 L588.063346,86.82 Z M607.517237,93.1 C606.617237,93.98 605.477237,94.38 604.137237,94.38 C600.797237,94.38 599.517237,91.68 599.517237,88.8 C599.517237,85.82 600.977237,83.06 604.197237,83.04 C605.457237,83.02 606.597237,83.42 607.357237,84.12 L607.957237,83.48 C607.017237,82.66 605.877237,82.2 604.177237,82.2 C600.697237,82.2 598.657237,84.98 598.657237,88.8 C598.657237,92.56 600.437237,95.2 604.157237,95.2 C605.777237,95.2 607.097237,94.72 608.117237,93.74 L607.517237,93.1 Z M618.391128,88.28 L618.491128,88.18 C618.711128,85.36 620.151128,83.04 623.131128,83.04 C626.111128,83.04 627.471128,85.32 627.631128,88.18 L627.731128,88.26 L618.391128,88.28 Z M628.531128,88.8 C628.531128,85.5 627.171128,82.2 623.111128,82.2 C619.411128,82.2 617.611128,85.18 617.611128,88.8 C617.611128,92.4 619.291128,95.2 623.211128,95.2 C624.771128,95.2 626.171128,94.7 627.271128,93.72 L626.651128,93.08 C625.711128,93.92 624.511128,94.38 623.191128,94.38 C620.091128,94.38 618.651128,92.24 618.471128,89.18 L618.371128,89.08 L628.531128,89.06 L628.531128,88.8 Z M644.545019,82.32 L644.445019,82.32 C642.465019,82.32 640.725019,83.5 640.125019,85.58 L640.085019,85.58 L640.085019,82.42 L639.225019,82.42 L639.225019,95 L640.085019,95 L640.085019,88.8 C640.085019,84.88 642.245019,83.28 644.345019,83.3 L644.545019,83.3 L644.545019,82.32 Z M663.17891,91.82 C663.17891,90.4 662.43891,89.26 660.05891,88.56 C659.75891,88.46 658.29891,87.98 658.01891,87.9 C656.05891,87.32 654.87891,86.7 654.87891,85.4 C654.87891,84.04 656.23891,83.04 658.47891,83.04 C659.97891,83.04 661.13891,83.62 662.05891,84.58 L662.69891,83.92 C661.61891,82.8 660.17891,82.2 658.47891,82.2 C655.27891,82.2 653.99891,83.84 653.99891,85.44 C653.99891,87.14 655.25891,87.98 657.47891,88.66 C657.75891,88.74 659.45891,89.28 659.71891,89.36 C661.49891,89.88 662.29891,90.58 662.29891,91.86 C662.29891,93.42 660.85891,94.38 658.55891,94.38 C657.05891,94.38 655.75891,93.84 654.51891,92.68 L653.83891,93.34 C655.15891,94.64 656.85891,95.22 658.61891,95.22 C662.05891,95.22 663.17891,93.46 663.17891,91.82 L663.17891,91.82 Z" id="freelancers" sketch:type="MSShapeGroup"></path>
            </g>
        </g>
    </g>
</svg>